<svg width="117" height="20" viewBox="0 0 117 20" fill="none" xmlns="http://www.w3.org/2000/svg">
<path d="M3.458 15.594V5.35C3.458 4.674 3.41467 4.14533 3.328 3.764C3.24133 3.36533 3.016 3.088 2.652 2.932C2.30533 2.776 1.716 2.698 0.884 2.698V1.918H8.372V2.698C7.55733 2.698 6.968 2.776 6.604 2.932C6.24 3.088 6.01467 3.36533 5.928 3.764C5.85867 4.14533 5.824 4.674 5.824 5.35V15.594C5.824 16.3393 5.876 16.9027 5.98 17.284C6.084 17.648 6.318 17.8993 6.682 18.038C7.046 18.1593 7.60933 18.22 8.372 18.22V19H0.884V18.22C1.664 18.22 2.236 18.1593 2.6 18.038C2.964 17.8993 3.198 17.648 3.302 17.284C3.406 16.9027 3.458 16.3393 3.458 15.594ZM24.555 6.598H23.749C23.5583 5.64467 23.359 4.91667 23.151 4.414C22.943 3.91133 22.605 3.56467 22.137 3.374C21.669 3.18333 20.9496 3.088 19.979 3.088H18.341V15.594C18.341 16.374 18.4016 16.9547 18.523 17.336C18.6443 17.7 18.887 17.9427 19.251 18.064C19.615 18.168 20.1696 18.22 20.915 18.22V19H13.375V18.22C14.103 18.22 14.649 18.168 15.013 18.064C15.377 17.9427 15.6196 17.7 15.741 17.336C15.8623 16.9547 15.923 16.374 15.923 15.594V3.088H14.259C13.3056 3.088 12.5863 3.18333 12.101 3.374C11.633 3.56467 11.295 3.91133 11.087 4.414C10.879 4.91667 10.6796 5.64467 10.489 6.598H9.68297L9.96897 1.918H24.347L24.555 6.598ZM40.221 6.598H39.415C39.2243 5.64467 39.025 4.91667 38.817 4.414C38.609 3.91133 38.271 3.56467 37.803 3.374C37.335 3.18333 36.6157 3.088 35.645 3.088H34.007V15.594C34.007 16.374 34.0677 16.9547 34.189 17.336C34.3103 17.7 34.553 17.9427 34.917 18.064C35.281 18.168 35.8357 18.22 36.581 18.22V19H29.041V18.22C29.769 18.22 30.315 18.168 30.679 18.064C31.043 17.9427 31.2857 17.7 31.407 17.336C31.5283 16.9547 31.589 16.374 31.589 15.594V3.088H29.925C28.9717 3.088 28.2523 3.18333 27.767 3.374C27.299 3.56467 26.961 3.91133 26.753 4.414C26.545 4.91667 26.3457 5.64467 26.155 6.598H25.349L25.635 1.918H40.013L40.221 6.598ZM56.173 14.164L55.445 19H41.561V18.22C42.2717 18.22 42.8003 18.1767 43.147 18.09C43.511 17.986 43.7537 17.7693 43.875 17.44C44.0137 17.1107 44.083 16.608 44.083 15.932V5.09C44.083 4.43133 44.0137 3.92867 43.875 3.582C43.7537 3.23533 43.511 3.00133 43.147 2.88C42.8003 2.75867 42.2717 2.698 41.561 2.698V1.918H55.211L55.367 6.182H54.535C54.4137 5.31533 54.223 4.66533 53.963 4.232C53.7203 3.78133 53.313 3.478 52.741 3.322C52.1863 3.166 51.3717 3.088 50.297 3.088H46.475V9.692H49.517C50.3143 9.692 50.921 9.62267 51.337 9.484C51.753 9.34533 52.039 9.08533 52.195 8.704C52.351 8.32267 52.429 7.78533 52.429 7.092H53.261V13.124H52.429C52.429 12.4133 52.351 11.8847 52.195 11.538C52.039 11.1913 51.753 10.966 51.337 10.862C50.921 10.758 50.3143 10.706 49.517 10.706H46.475V17.856H49.829C50.8343 17.856 51.6403 17.8127 52.247 17.726C52.871 17.622 53.3563 17.44 53.703 17.18C54.067 16.92 54.3617 16.5473 54.587 16.062C54.8297 15.5767 55.081 14.944 55.341 14.164H56.173ZM75.4904 1.918V2.698C75.0224 2.698 74.6671 2.74133 74.4244 2.828C74.1991 2.89733 73.9911 3.02733 73.8004 3.218C73.5924 3.39133 73.4277 3.69467 73.3064 4.128C73.1851 4.56133 73.1244 5.246 73.1244 6.182V19.208H72.2664L61.5024 5.298H61.3724V15.126C61.3724 15.9927 61.4331 16.6513 61.5544 17.102C61.6757 17.5353 61.9097 17.83 62.2564 17.986C62.6031 18.142 63.0971 18.22 63.7384 18.22V19H57.6544V18.22C58.3477 18.22 58.8677 18.1507 59.2144 18.012C59.5611 17.856 59.7951 17.5527 59.9164 17.102C60.0377 16.6513 60.0984 15.9927 60.0984 15.126V4.024C59.6824 3.48667 59.3184 3.13133 59.0064 2.958C58.6944 2.78467 58.2437 2.698 57.6544 2.698V1.918H62.0744L71.6944 14.476H71.8244V6.052C71.8244 5.272 71.7897 4.68267 71.7204 4.284C71.6511 3.88533 71.5211 3.57333 71.3304 3.348C71.1224 3.10533 70.8797 2.94067 70.6024 2.854C70.3251 2.75 69.9091 2.698 69.3544 2.698V1.918H75.4904ZM87.6373 6.858H86.8573C86.4933 5.41933 86.0079 4.35333 85.4013 3.66C84.7946 2.96667 83.8326 2.62867 82.5153 2.646C81.6313 2.646 80.9466 2.854 80.4613 3.27C79.9759 3.66867 79.7333 4.27533 79.7333 5.09C79.7333 5.73133 79.9153 6.286 80.2793 6.754C80.6433 7.20467 81.1199 7.612 81.7093 7.976C82.2986 8.34 82.9139 8.71267 83.5553 9.094C84.1273 9.42333 84.6993 9.75267 85.2713 10.082C85.8606 10.4113 86.3893 10.784 86.8573 11.2C87.3426 11.616 87.7239 12.1013 88.0013 12.656C88.2959 13.2107 88.4433 13.878 88.4433 14.658C88.4433 15.6633 88.2093 16.5127 87.7413 17.206C87.2906 17.8993 86.6666 18.428 85.8693 18.792C85.0719 19.1387 84.1706 19.312 83.1653 19.312C82.2639 19.312 81.5273 19.2427 80.9553 19.104C80.4006 18.9827 79.9586 18.8613 79.6293 18.74C79.3173 18.6013 79.0573 18.532 78.8493 18.532C78.6759 18.532 78.5199 18.61 78.3813 18.766C78.2426 18.922 78.1646 19.13 78.1473 19.39H77.3413L77.1073 13.774H77.9133C78.2253 14.97 78.5893 15.8887 79.0053 16.53C79.4213 17.154 79.9326 17.5873 80.5393 17.83C81.1633 18.0553 81.9173 18.168 82.8013 18.168C83.7719 18.168 84.5433 17.96 85.1153 17.544C85.6873 17.1107 85.9733 16.4 85.9733 15.412C85.9733 14.6493 85.7566 14.0167 85.3233 13.514C84.9073 13.0113 84.3699 12.5693 83.7113 12.188C83.0526 11.7893 82.3679 11.3907 81.6573 10.992C80.9639 10.5933 80.2966 10.1687 79.6553 9.718C79.0139 9.26733 78.4853 8.73 78.0693 8.106C77.6706 7.482 77.4713 6.71933 77.4713 5.818C77.4713 4.89933 77.6966 4.13667 78.1473 3.53C78.5979 2.906 79.1959 2.42933 79.9413 2.1C80.6866 1.77067 81.5099 1.606 82.4113 1.606C83.2086 1.606 83.8239 1.67533 84.2573 1.814C84.6906 1.93533 85.0286 2.06533 85.2713 2.204C85.5313 2.34267 85.7653 2.412 85.9733 2.412C86.3893 2.412 86.6579 2.16067 86.7793 1.658H87.4553L87.6373 6.858ZM106.251 1.918V2.698C105.748 2.73267 105.315 2.81933 104.951 2.958C104.604 3.09667 104.266 3.33933 103.937 3.686C103.625 4.03267 103.252 4.56133 102.819 5.272L98.9708 11.694V15.594C98.9708 16.3567 99.0402 16.9287 99.1788 17.31C99.3348 17.674 99.6035 17.9167 99.9848 18.038C100.383 18.1593 100.947 18.22 101.675 18.22V19H93.9788V18.22C94.7415 18.22 95.3048 18.168 95.6688 18.064C96.0502 17.9427 96.2928 17.6913 96.3968 17.31C96.5182 16.9287 96.5788 16.3567 96.5788 15.594V11.824L93.2768 6.494C92.7395 5.61 92.2802 4.91667 91.8988 4.414C91.5175 3.91133 91.1708 3.53867 90.8588 3.296C90.5642 3.036 90.2868 2.87133 90.0268 2.802C89.7668 2.73267 89.4808 2.698 89.1688 2.698V1.918H96.1628V2.698C95.4348 2.698 94.9582 2.75 94.7328 2.854C94.5248 2.958 94.4208 3.10533 94.4208 3.296C94.4208 3.64267 94.5682 4.04133 94.8628 4.492L97.2028 8.236L98.3468 10.264H98.5028L101.935 4.414C102.021 4.27533 102.091 4.11933 102.143 3.946C102.212 3.77267 102.247 3.59067 102.247 3.4C102.247 3.15733 102.134 2.984 101.909 2.88C101.683 2.75867 101.241 2.698 100.583 2.698V1.918H106.251ZM107.577 4.804C107.577 3.92 107.767 3.14 108.149 2.464C108.547 1.77067 109.076 1.22467 109.735 0.825998C110.411 0.427332 111.165 0.227998 111.997 0.227998C112.863 0.227998 113.626 0.427332 114.285 0.825998C114.961 1.22467 115.489 1.77067 115.871 2.464C116.252 3.14 116.443 3.92 116.443 4.804C116.443 5.67067 116.252 6.45067 115.871 7.144C115.489 7.82 114.961 8.35733 114.285 8.756C113.626 9.13733 112.863 9.328 111.997 9.328C111.147 9.328 110.385 9.13733 109.709 8.756C109.05 8.35733 108.53 7.82 108.149 7.144C107.767 6.45067 107.577 5.67067 107.577 4.804ZM108.175 4.804C108.175 5.96533 108.521 6.92733 109.215 7.69C109.925 8.43533 110.853 8.808 111.997 8.808C113.141 8.808 114.068 8.43533 114.779 7.69C115.489 6.92733 115.845 5.96533 115.845 4.804C115.845 3.608 115.489 2.63733 114.779 1.892C114.068 1.12933 113.141 0.747999 111.997 0.747999C110.853 0.747999 109.925 1.12933 109.215 1.892C108.521 2.63733 108.175 3.608 108.175 4.804ZM114.051 3.66C114.051 4.09333 113.912 4.39667 113.635 4.57C113.375 4.74333 113.089 4.86467 112.777 4.934V4.986C112.881 5.10733 113.011 5.246 113.167 5.402C113.323 5.558 113.617 5.88733 114.051 6.39C114.172 6.52867 114.267 6.624 114.337 6.676C114.406 6.728 114.519 6.754 114.675 6.754V7.17H113.297C112.881 6.56333 112.595 6.156 112.439 5.948C112.283 5.72267 112.118 5.49733 111.945 5.272C111.841 5.15067 111.745 5.09 111.659 5.09H111.347V6.104C111.347 6.39867 111.39 6.58067 111.477 6.65C111.581 6.71933 111.806 6.754 112.153 6.754V7.17H109.605V6.754C109.882 6.754 110.073 6.71933 110.177 6.65C110.281 6.58067 110.333 6.39867 110.333 6.104V3.322C110.333 3.09667 110.289 2.94933 110.203 2.88C110.133 2.81067 109.951 2.776 109.657 2.776V2.412H111.893C112.447 2.412 112.941 2.49867 113.375 2.672C113.825 2.828 114.051 3.15733 114.051 3.66ZM111.347 2.906V4.648H111.607C112.057 4.648 112.387 4.57867 112.595 4.44C112.803 4.30133 112.907 4.04133 112.907 3.66C112.907 3.348 112.811 3.14867 112.621 3.062C112.447 2.958 112.179 2.906 111.815 2.906H111.347Z" fill="#261003"/>
</svg>
